<svg width="52" height="48" viewBox="0 0 52 48" fill="none" xmlns="http://www.w3.org/2000/svg">
<path d="M0.416406 3.58125C0.142187 3.20625 0 2.75625 0 2.30625C0 1.03125 1.11719 0 2.49844 0H13.5992C14.7367 0 15.8031 0.553125 16.382 1.45312L23.3391 12.15C18.4438 12.7219 14.0664 14.8313 10.8063 17.9531L0.416406 3.58125ZM51.5734 3.58125L41.1938 17.9531C37.9336 14.8313 33.5563 12.7219 28.6609 12.15L35.618 1.45312C36.207 0.553125 37.2633 0 38.4008 0H49.5016C50.8828 0 52 1.03125 52 2.30625C52 2.75625 51.8578 3.20625 51.5836 3.58125H51.5734ZM8.125 31.5C8.125 27.1239 10.0083 22.9271 13.3605 19.8327C16.7127 16.7384 21.2593 15 26 15C30.7407 15 35.2873 16.7384 38.6395 19.8327C41.9917 22.9271 43.875 27.1239 43.875 31.5C43.875 35.8761 41.9917 40.0729 38.6395 43.1673C35.2873 46.2616 30.7407 48 26 48C21.2593 48 16.7127 46.2616 13.3605 43.1673C10.0083 40.0729 8.125 35.8761 8.125 31.5ZM26.8531 22.6031C26.5078 21.9469 25.5023 21.9469 25.1469 22.6031L22.8719 26.8594C22.7297 27.1219 22.4656 27.3 22.1609 27.3375L17.0625 28.0219C16.2805 28.125 15.9758 29.0062 16.5344 29.5219L20.2211 32.8406C20.4445 33.0469 20.5461 33.3281 20.4953 33.6188L19.6219 38.2969C19.4898 39.0094 20.3023 39.5625 21.0031 39.225L25.5531 37.0125C25.8273 36.8812 26.1625 36.8812 26.4367 37.0125L30.9867 39.225C31.6875 39.5625 32.5 39.0187 32.368 38.2969L31.4945 33.6188C31.4438 33.3375 31.5453 33.0469 31.7687 32.8406L35.4555 29.5219C36.0242 29.0156 35.7094 28.1344 34.9273 28.0219L29.8391 27.3375C29.5344 27.3 29.2602 27.1125 29.1281 26.8594L26.8531 22.6031Z" fill="white"/>
</svg>
