<svg width="20" height="21" viewBox="0 0 20 21" fill="none" xmlns="http://www.w3.org/2000/svg">
<path d="M10 6.6499V10.3999" stroke="white" stroke-width="2" stroke-linecap="round" stroke-linejoin="round"/>
<path d="M10.625 14.1499C10.625 14.3157 10.5592 14.4746 10.4419 14.5918C10.3247 14.7091 10.1658 14.7749 10 14.7749C9.83424 14.7749 9.67527 14.7091 9.55806 14.5918C9.44085 14.4746 9.375 14.3157 9.375 14.1499C9.375 13.9841 9.44085 13.8252 9.55806 13.708C9.67527 13.5907 9.83424 13.5249 10 13.5249C10.1658 13.5249 10.3247 13.5907 10.4419 13.708C10.5592 13.8252 10.625 13.9841 10.625 14.1499Z" stroke="white" stroke-linecap="round" stroke-linejoin="round"/>
<path d="M12.8125 2.5874H7.1875C4.42608 2.5874 2.1875 4.82598 2.1875 7.5874V13.2124C2.1875 15.9738 4.42608 18.2124 7.1875 18.2124H12.8125C15.5739 18.2124 17.8125 15.9738 17.8125 13.2124V7.5874C17.8125 4.82598 15.5739 2.5874 12.8125 2.5874Z" stroke="white" stroke-width="1.5" stroke-linecap="round" stroke-linejoin="round"/>
</svg>
