<svg width="57" height="63" viewBox="0 0 57 63" fill="none" xmlns="http://www.w3.org/2000/svg">
<g clip-path="url(#clip0_2014_166)">
<path d="M10.4357 11.662C13.5166 4.80958 20.5802 0.0274048 28.8085 0.0274048C37.0368 0.0274048 44.1003 4.80958 47.1812 11.662C49.2352 11.8315 50.8508 13.4901 50.8508 15.5241V23.2724C50.8508 25.3063 49.2352 26.965 47.1812 27.1345C44.1003 33.9869 37.0368 38.7691 28.8085 38.7691C20.5802 38.7691 13.5166 33.9869 10.4357 27.1345C8.38176 26.965 6.76616 25.3063 6.76616 23.2724V15.5241C6.76616 13.4901 8.38176 11.8315 10.4357 11.662ZM14.7815 17.4611V19.3982C14.7815 25.8148 20.1669 31.0207 26.8046 31.0207H30.8123C37.45 31.0207 42.8354 25.8148 42.8354 19.3982V17.4611C42.8354 14.2529 40.1427 11.6499 36.8238 11.6499H20.7931C17.4742 11.6499 14.7815 14.2529 14.7815 17.4611ZM33.1543 19.7251L33.9057 17.1585C34.0185 16.759 34.3942 16.4926 34.82 16.4926C35.2458 16.4926 35.6215 16.759 35.7343 17.1585L36.4857 19.7251L39.1408 20.4515C39.5541 20.5605 39.8296 20.9237 39.8296 21.3353C39.8296 21.7469 39.5541 22.1101 39.1408 22.2191L36.4857 22.9455L35.7343 25.5121C35.6215 25.9117 35.2458 26.178 34.82 26.178C34.3942 26.178 34.0185 25.9117 33.9057 25.5121L33.1543 22.9455L30.4992 22.2191C30.0859 22.1101 29.8104 21.7469 29.8104 21.3353C29.8104 20.9237 30.0859 20.5605 30.4992 20.4515L33.1543 19.7251ZM42.7477 38.3453C51.0136 41.5052 56.8623 49.3019 56.8623 58.4183C56.8623 60.4038 55.1966 62.014 53.1427 62.014H40.8315V54.2657C40.8315 52.1228 39.0406 50.3916 36.8238 50.3916H20.7931C18.5763 50.3916 16.7854 52.1228 16.7854 54.2657V62.014H4.47425C2.42031 62.014 0.754616 60.4038 0.754616 58.4183C0.754616 49.3019 6.60334 41.5052 14.8692 38.3453C18.8018 41.0451 23.611 42.6432 28.8085 42.6432C34.0059 42.6432 38.8152 41.0451 42.7477 38.3453ZM34.82 54.2657C35.9221 54.2657 36.8238 55.1374 36.8238 56.2028V62.014H32.8162V56.2028C32.8162 55.1374 33.7179 54.2657 34.82 54.2657ZM22.7969 58.1399C22.2655 58.1399 21.7558 57.9358 21.38 57.5725C21.0042 57.2093 20.7931 56.7165 20.7931 56.2028C20.7931 55.6891 21.0042 55.1963 21.38 54.8331C21.7558 54.4698 22.2655 54.2657 22.7969 54.2657C23.3284 54.2657 23.8381 54.4698 24.2139 54.8331C24.5897 55.1963 24.8008 55.6891 24.8008 56.2028C24.8008 56.7165 24.5897 57.2093 24.2139 57.5725C23.8381 57.9358 23.3284 58.1399 22.7969 58.1399Z" fill="white"/>
</g>
<defs>
<clipPath id="clip0_2014_166">
<rect width="56.1077" height="61.9866" fill="white" transform="matrix(-1 0 0 1 56.8623 0.0274048)"/>
</clipPath>
</defs>
</svg>
