<svg width="22" height="22" viewBox="0 0 22 22" fill="none" xmlns="http://www.w3.org/2000/svg">
<path d="M5.37504 10.625L2.80854 13.481C2.43004 13.8552 2.12924 14.3005 1.92345 14.7913C1.71765 15.2822 1.61092 15.8088 1.60939 16.3411C1.60786 16.8733 1.71156 17.4006 1.91453 17.8926C2.1175 18.3846 2.41573 18.8316 2.79208 19.208C3.16842 19.5843 3.61545 19.8825 4.10746 20.0855C4.59947 20.2885 5.12675 20.3922 5.65898 20.3906C6.19121 20.3891 6.71789 20.2824 7.20872 20.0766C7.69956 19.8708 8.14487 19.57 8.51904 19.1915L11.375 16.625M16.625 11.375L19.1915 8.519C19.577 8.14643 19.8845 7.70082 20.096 7.20817C20.3074 6.71551 20.4187 6.18568 20.4232 5.64958C20.4278 5.11348 20.3255 4.58184 20.1224 4.08568C19.9193 3.58952 19.6194 3.13877 19.2403 2.75972C18.8612 2.38068 18.4103 2.08093 17.9141 1.87796C17.4179 1.67499 16.8862 1.57287 16.3501 1.57755C15.814 1.58223 15.2842 1.69362 14.7916 1.90522C14.299 2.11682 13.8535 2.42439 13.481 2.81L10.625 5.375M9.12504 12.875L12.875 9.125" stroke="#56C2FF" stroke-width="1.5" stroke-linecap="round" stroke-linejoin="round"/>
</svg>
