<svg width="21" height="21" viewBox="0 0 21 21" fill="none" xmlns="http://www.w3.org/2000/svg">
<path d="M14.125 6.92493C14.125 6.92493 10.5475 10.7349 9.625 13.6749L7.375 11.4249M20.125 10.2999C20.125 12.7863 19.1373 15.1709 17.3791 16.9291C15.621 18.6872 13.2364 19.6749 10.75 19.6749C8.2636 19.6749 5.87903 18.6872 4.12087 16.9291C2.36272 15.1709 1.375 12.7863 1.375 10.2999C1.375 7.81352 2.36272 5.42895 4.12087 3.6708C5.87903 1.91265 8.2636 0.924927 10.75 0.924927C13.2364 0.924927 15.621 1.91265 17.3791 3.6708C19.1373 5.42895 20.125 7.81352 20.125 10.2999Z" stroke="#56C2FF" stroke-width="1.5" stroke-linecap="round" stroke-linejoin="round"/>
</svg>
