<svg width="53" height="49" viewBox="0 0 53 49" fill="none" xmlns="http://www.w3.org/2000/svg">
<g clip-path="url(#clip0_2059_6)">
<path d="M0.594141 3.60197C0.319922 3.22697 0.177734 2.77697 0.177734 2.32697C0.177734 1.05197 1.29492 0.0207214 2.67617 0.0207214H13.777C14.9145 0.0207214 15.9809 0.573846 16.5598 1.47385L23.5168 12.1707C18.6215 12.7426 14.2441 14.852 10.984 17.9738L0.594141 3.60197ZM51.7512 3.60197L41.3715 17.9738C38.1113 14.852 33.734 12.7426 28.8387 12.1707L35.7957 1.47385C36.3848 0.573846 37.441 0.0207214 38.5785 0.0207214H49.6793C51.0605 0.0207214 52.1777 1.05197 52.1777 2.32697C52.1777 2.77697 52.0355 3.22697 51.7613 3.60197H51.7512ZM8.30273 31.5207C8.30273 27.1446 10.186 22.9478 13.5382 19.8535C16.8904 16.7591 21.437 15.0207 26.1777 15.0207C30.9185 15.0207 35.4651 16.7591 38.8173 19.8535C42.1695 22.9478 44.0527 27.1446 44.0527 31.5207C44.0527 35.8968 42.1695 40.0936 38.8173 43.188C35.4651 46.2823 30.9185 48.0207 26.1777 48.0207C21.437 48.0207 16.8904 46.2823 13.5382 43.188C10.186 40.0936 8.30273 35.8968 8.30273 31.5207ZM27.0309 22.6238C26.6855 21.9676 25.6801 21.9676 25.3246 22.6238L23.0496 26.8801C22.9074 27.1426 22.6434 27.3207 22.3387 27.3582L17.2402 28.0426C16.4582 28.1457 16.1535 29.027 16.7121 29.5426L20.3988 32.8613C20.6223 33.0676 20.7238 33.3488 20.673 33.6395L19.7996 38.3176C19.6676 39.0301 20.4801 39.5832 21.1809 39.2457L25.7309 37.0332C26.0051 36.902 26.3402 36.902 26.6145 37.0332L31.1645 39.2457C31.8652 39.5832 32.6777 39.0395 32.5457 38.3176L31.6723 33.6395C31.6215 33.3582 31.723 33.0676 31.9465 32.8613L35.6332 29.5426C36.202 29.0363 35.8871 28.1551 35.1051 28.0426L30.0168 27.3582C29.7121 27.3207 29.4379 27.1332 29.3059 26.8801L27.0309 22.6238Z" fill="white"/>
</g>
<defs>
<clipPath id="clip0_2059_6">
<rect width="52" height="48" fill="white" transform="translate(0.177734 0.0207214)"/>
</clipPath>
</defs>
</svg>
