<svg width="136" height="88" viewBox="0 0 136 88" fill="none" xmlns="http://www.w3.org/2000/svg">
<rect width="40" height="40" rx="20" fill="#D0D0C8"/>
<path d="M28 20C28 15.6 24.4 12 20 12C15.6 12 12 15.6 12 20C12 24 14.9 27.3 18.7 27.9V22.3H16.7V20H18.7V18.2C18.7 16.2 19.9 15.1 21.7 15.1C22.6 15.1 23.5 15.3 23.5 15.3V17.3H22.5C21.5 17.3 21.2 17.9 21.2 18.5V20H23.4L23 22.3H21.1V28C25.1 27.4 28 24 28 20Z" fill="#181A1B"/>
<rect x="48" width="40" height="40" rx="20" fill="#D0D0C8"/>
<path d="M63.8583 28H60.7478V17.3179H63.8583V28ZM62.3013 15.8607C61.3069 15.8607 60.5 14.9821 60.5 13.9214C60.5 13.4118 60.6898 12.9231 61.0276 12.5628C61.3654 12.2024 61.8236 12 62.3013 12C62.7791 12 63.2373 12.2024 63.5751 12.5628C63.9129 12.9231 64.1027 13.4118 64.1027 13.9214C64.1027 14.9821 63.2958 15.8607 62.3013 15.8607ZM75.4967 28H72.3929V22.8C72.3929 21.5607 72.3694 19.9714 70.7757 19.9714C69.1585 19.9714 68.9107 21.3179 68.9107 22.7107V28H65.8036V17.3179H68.7868V18.775H68.8304C69.2455 17.9357 70.26 17.05 71.7734 17.05C74.9208 17.05 75.5 19.2607 75.5 22.1321V28H75.4967Z" fill="#05010D"/>
<rect x="96" width="40" height="40" rx="20" fill="#D0D0C8"/>
<path d="M116 13.4458C118.12 13.4458 118.41 13.4458 119.277 13.4458C120.048 13.4458 120.434 13.6386 120.723 13.7349C121.108 13.9277 121.398 14.0241 121.687 14.3133C121.976 14.6024 122.169 14.8916 122.265 15.2771C122.361 15.5663 122.458 15.9518 122.554 16.7229C122.554 17.5904 122.554 17.7831 122.554 20C122.554 22.2169 122.554 22.4096 122.554 23.2771C122.554 24.0482 122.361 24.4337 122.265 24.7229C122.072 25.1084 121.976 25.3976 121.687 25.6867C121.398 25.9759 121.108 26.1687 120.723 26.2651C120.434 26.3614 120.048 26.4578 119.277 26.5542C118.41 26.5542 118.217 26.5542 116 26.5542C113.783 26.5542 113.59 26.5542 112.723 26.5542C111.952 26.5542 111.566 26.3614 111.277 26.2651C110.892 26.0723 110.602 25.9759 110.313 25.6867C110.024 25.3976 109.831 25.1084 109.735 24.7229C109.639 24.4337 109.542 24.0482 109.446 23.2771C109.446 22.4096 109.446 22.2169 109.446 20C109.446 17.7831 109.446 17.5904 109.446 16.7229C109.446 15.9518 109.639 15.5663 109.735 15.2771C109.928 14.8916 110.024 14.6024 110.313 14.3133C110.602 14.0241 110.892 13.8313 111.277 13.7349C111.566 13.6386 111.952 13.5422 112.723 13.4458C113.59 13.4458 113.88 13.4458 116 13.4458ZM116 12C113.783 12 113.59 12 112.723 12C111.855 12 111.277 12.1928 110.795 12.3855C110.313 12.5783 109.831 12.8675 109.349 13.3494C108.867 13.8313 108.675 14.2169 108.386 14.7952C108.193 15.2771 108.096 15.8554 108 16.7229C108 17.5904 108 17.8795 108 20C108 22.2169 108 22.4096 108 23.2771C108 24.1446 108.193 24.7229 108.386 25.2048C108.578 25.6867 108.867 26.1687 109.349 26.6506C109.831 27.1325 110.217 27.3253 110.795 27.6145C111.277 27.8072 111.855 27.9036 112.723 28C113.59 28 113.88 28 116 28C118.12 28 118.41 28 119.277 28C120.145 28 120.723 27.8072 121.205 27.6145C121.687 27.4217 122.169 27.1325 122.651 26.6506C123.133 26.1687 123.325 25.7831 123.614 25.2048C123.807 24.7229 123.904 24.1446 124 23.2771C124 22.4096 124 22.1205 124 20C124 17.8795 124 17.5904 124 16.7229C124 15.8554 123.807 15.2771 123.614 14.7952C123.422 14.3133 123.133 13.8313 122.651 13.3494C122.169 12.8675 121.783 12.6747 121.205 12.3855C120.723 12.1928 120.145 12.0964 119.277 12C118.41 12 118.217 12 116 12Z" fill="#181A1B"/>
<path d="M116 15.8554C113.687 15.8554 111.855 17.6867 111.855 20C111.855 22.3133 113.687 24.1446 116 24.1446C118.313 24.1446 120.145 22.3133 120.145 20C120.145 17.6867 118.313 15.8554 116 15.8554ZM116 22.6988C114.554 22.6988 113.301 21.5422 113.301 20C113.301 18.5542 114.458 17.3012 116 17.3012C117.446 17.3012 118.699 18.4578 118.699 20C118.699 21.4458 117.446 22.6988 116 22.6988Z" fill="#181A1B"/>
<path d="M120.241 16.7229C120.773 16.7229 121.205 16.2914 121.205 15.759C121.205 15.2267 120.773 14.7952 120.241 14.7952C119.709 14.7952 119.277 15.2267 119.277 15.759C119.277 16.2914 119.709 16.7229 120.241 16.7229Z" fill="#181A1B"/>
<rect x="48.5" y="48.5" width="39" height="39" rx="19.5" stroke="#D0D0C8" stroke-opacity="0.4"/>
<path d="M61.0999 67.0965C65.3949 65.2619 68.2589 64.0524 69.6919 63.4681C73.7834 61.7996 74.6335 61.5098 75.1877 61.5001C75.3095 61.4981 75.582 61.5277 75.7586 61.6681C75.9076 61.7867 75.9486 61.9469 75.9683 62.0593C75.9879 62.1717 76.0123 62.4278 75.9929 62.6279C75.7712 64.9119 74.8118 70.4546 74.3237 73.0127C74.1172 74.0951 73.7105 74.458 73.3168 74.4936C72.4613 74.5707 71.8116 73.9392 70.9829 73.4067C69.6862 72.5733 68.9537 72.0545 67.695 71.2414C66.2404 70.3016 67.1834 69.7851 68.0124 68.9409C68.2293 68.72 71.999 65.3584 72.0719 65.0534C72.0811 65.0153 72.0895 64.8731 72.0034 64.798C71.9172 64.723 71.7901 64.7486 71.6983 64.7691C71.5683 64.798 69.4968 66.1403 65.4839 68.7961C64.8959 69.192 64.3633 69.3848 63.8862 69.3747C63.3601 69.3636 62.3482 69.0831 61.596 68.8434C60.6733 68.5493 59.94 68.3939 60.0039 67.8945C60.0371 67.6344 60.4025 67.3684 61.0999 67.0965Z" fill="#D0D0C8"/>
<rect x="96.5" y="48.5" width="39" height="39" rx="19.5" stroke="#D0D0C8" stroke-opacity="0.4"/>
<path fill-rule="evenodd" clip-rule="evenodd" d="M121.6 62.3C120.1 60.8 118.1 60 116 60C111.6 60 108 63.6 108 68C108 69.4 108.4 70.8 109.1 72L108 76L112.2 74.9C113.4 75.5 114.7 75.9 116 75.9C120.4 75.9 124 72.3 124 67.9C124 65.8 123.1 63.8 121.6 62.3ZM116 74.6C114.8 74.6 113.6 74.3 112.6 73.7L112.4 73.6L109.9 74.3L110.6 71.9L110.4 71.6C109.7 70.5 109.4 69.3 109.4 68.1C109.4 64.5 112.4 61.5 116 61.5C117.8 61.5 119.4 62.2 120.7 63.4C122 64.7 122.6 66.3 122.6 68.1C122.6 71.6 119.7 74.6 116 74.6ZM119.6 69.6C119.4 69.5 118.4 69 118.2 69C118 68.9 117.9 68.9 117.8 69.1C117.7 69.3 117.3 69.7 117.2 69.9C117.1 70 117 70 116.8 70C116.6 69.9 116 69.7 115.2 69C114.6 68.5 114.2 67.8 114.1 67.6C114 67.4 114.1 67.3 114.2 67.2C114.3 67.1 114.4 67 114.5 66.9C114.6 66.8 114.6 66.7 114.7 66.6C114.8 66.5 114.7 66.4 114.7 66.3C114.7 66.2 114.3 65.2 114.1 64.8C114 64.5 113.8 64.5 113.7 64.5C113.6 64.5 113.5 64.5 113.3 64.5C113.2 64.5 113 64.5 112.8 64.7C112.6 64.9 112.1 65.4 112.1 66.4C112.1 67.4 112.8 68.3 112.9 68.5C113 68.6 114.3 70.7 116.3 71.5C118 72.2 118.3 72 118.7 72C119.1 72 119.9 71.5 120 71.1C120.2 70.6 120.2 70.2 120.1 70.2C120 69.7 119.8 69.7 119.6 69.6Z" fill="#D0D0C8"/>
</svg>
