<svg width="17" height="17" viewBox="0 0 17 17" fill="none" xmlns="http://www.w3.org/2000/svg">
<path d="M8.57498 14.4157C8.67366 14.4153 8.77123 14.3948 8.8618 14.3556C8.95237 14.3164 9.03407 14.2593 9.10198 14.1877L13.272 10.0177C13.431 9.85172 13.501 9.68072 13.501 9.50272C13.501 9.09672 13.215 8.80472 12.828 8.80472C12.625 8.80472 12.453 8.88672 12.326 9.01472L10.879 10.4417L9.19698 12.2827L9.28598 10.8107V3.11672C9.28598 2.69172 8.99398 2.39972 8.57498 2.39972C8.16198 2.39972 7.86998 2.69172 7.86998 3.11672L7.86998 10.8107L7.95998 12.2827L6.27698 10.4427L4.82998 9.01372C4.76459 8.94693 4.68648 8.89394 4.60025 8.85786C4.51402 8.82179 4.42144 8.80338 4.32798 8.80372C3.94098 8.80372 3.65498 9.09672 3.65498 9.50272C3.65498 9.68072 3.72498 9.85272 3.87098 10.0037L8.05398 14.1877C8.12096 14.2586 8.2015 14.3153 8.29083 14.3545C8.38016 14.3937 8.47745 14.4145 8.57498 14.4157Z" fill="white" fill-opacity="0.4"/>
</svg>
