<svg width="68" height="69" viewBox="0 0 68 69" fill="none" xmlns="http://www.w3.org/2000/svg">
<g clip-path="url(#clip0_2014_170)">
<path d="M19.19 2.15259C19.19 0.98409 18.246 0.0280457 17.0923 0.0280457C15.9385 0.0280457 14.9945 0.98409 14.9945 2.15259V4.27713H12.8967C11.7429 4.27713 10.7989 5.23317 10.7989 6.40167C10.7989 7.57017 11.7429 8.52621 12.8967 8.52621H14.9945V12.7753H8.20294C6.74761 12.7753 5.5545 13.9836 5.5545 15.4575C5.5545 15.7895 5.62006 16.1082 5.72494 16.4269L9.98605 27.6471H9.75005C8.00628 27.6471 6.60339 29.0679 6.60339 30.8339C6.60339 32.5999 8.00628 34.0207 9.75005 34.0207H10.2745L8.17672 51.0171H26.0078L23.91 34.0207H24.4345C26.1783 34.0207 27.5812 32.5999 27.5812 30.8339C27.5812 29.0679 26.1783 27.6471 24.4345 27.6471H24.1985L28.4596 16.4269C28.5776 16.1215 28.63 15.7895 28.63 15.4575C28.63 13.9704 27.4369 12.7753 25.9816 12.7753H19.19V8.52621H21.2878C22.4416 8.52621 23.3856 7.57017 23.3856 6.40167C23.3856 5.23317 22.4416 4.27713 21.2878 4.27713H19.19V2.15259ZM6.60339 55.2661L0.939392 62.9145C0.532947 63.4722 0.310059 64.1361 0.310059 64.8266C0.310059 66.5926 1.71295 68.0134 3.45672 68.0134H30.7278C32.4716 68.0134 33.8745 66.5926 33.8745 64.8266C33.8745 64.1361 33.6516 63.4722 33.2451 62.9145L27.5812 55.2661H6.60339ZM44.3634 55.2661L38.6994 62.9145C38.2929 63.4722 38.07 64.1361 38.07 64.8266C38.07 66.5926 39.4729 68.0134 41.2167 68.0134H64.2922C66.036 68.0134 67.4389 66.5926 67.4389 64.8266C67.4389 64.1361 67.216 63.4722 66.8096 62.9145L61.1456 55.2661H44.3634ZM40.1678 27.6471V34.5386C40.1678 35.5743 40.5349 36.5702 41.2167 37.3403L44.7829 41.4566L44.4945 51.0171H60.9489L60.5162 41.4566L64.2267 37.3669C64.9347 36.5834 65.3411 35.561 65.3411 34.4855V27.6471C65.3411 26.4786 64.3971 25.5225 63.2434 25.5225H61.1456C59.9918 25.5225 59.0478 26.4786 59.0478 27.6471V29.7716H55.9011V27.6471C55.9011 26.4786 54.9571 25.5225 53.8034 25.5225H51.7056C50.5518 25.5225 49.6078 26.4786 49.6078 27.6471V29.7716H46.4611V27.6471C46.4611 26.4786 45.5171 25.5225 44.3634 25.5225H42.2656C41.1118 25.5225 40.1678 26.4786 40.1678 27.6471ZM50.6567 40.3943C50.6567 39.2258 51.6007 38.2698 52.7545 38.2698C53.9082 38.2698 54.8522 39.2258 54.8522 40.3943V44.6434H50.6567V40.3943Z" fill="white"/>
</g>
<defs>
<clipPath id="clip0_2014_170">
<rect width="67.1288" height="67.9853" fill="white" transform="translate(0.310059 0.0280457)"/>
</clipPath>
</defs>
</svg>
