<svg width="40" height="40" viewBox="0 0 40 40" fill="none" xmlns="http://www.w3.org/2000/svg">
<rect x="0.5" y="0.5" width="39" height="39" rx="19.5" stroke="#D0D0C8" stroke-opacity="0.4"/>
<path d="M13.0999 19.0965C17.3949 17.2619 20.2589 16.0524 21.6919 15.4681C25.7834 13.7996 26.6335 13.5098 27.1877 13.5001C27.3095 13.4981 27.582 13.5277 27.7586 13.6681C27.9076 13.7867 27.9486 13.9469 27.9683 14.0593C27.9879 14.1717 28.0123 14.4278 27.9929 14.6279C27.7712 16.9119 26.8118 22.4546 26.3237 25.0127C26.1172 26.0951 25.7105 26.458 25.3168 26.4936C24.4613 26.5707 23.8116 25.9392 22.9829 25.4067C21.6862 24.5733 20.9537 24.0545 19.695 23.2414C18.2404 22.3016 19.1834 21.7851 20.0124 20.9409C20.2293 20.72 23.999 17.3584 24.0719 17.0534C24.0811 17.0153 24.0895 16.8731 24.0034 16.798C23.9172 16.723 23.7901 16.7486 23.6983 16.7691C23.5683 16.798 21.4968 18.1403 17.4839 20.7961C16.8959 21.192 16.3633 21.3848 15.8862 21.3747C15.3601 21.3636 14.3482 21.0831 13.596 20.8434C12.6733 20.5493 11.94 20.3939 12.0039 19.8945C12.0371 19.6344 12.4025 19.3684 13.0999 19.0965Z" fill="#D0D0C8"/>
</svg>
