<svg width="40" height="40" viewBox="0 0 40 40" fill="none" xmlns="http://www.w3.org/2000/svg">
<rect width="40" height="40" rx="20" fill="#D0D0C8"/>
<path d="M15.8583 28H12.7478V17.3179H15.8583V28ZM14.3013 15.8607C13.3069 15.8607 12.5 14.9821 12.5 13.9214C12.5 13.4118 12.6898 12.9231 13.0276 12.5628C13.3654 12.2024 13.8236 12 14.3013 12C14.7791 12 15.2373 12.2024 15.5751 12.5628C15.9129 12.9231 16.1027 13.4118 16.1027 13.9214C16.1027 14.9821 15.2958 15.8607 14.3013 15.8607ZM27.4967 28H24.3929V22.8C24.3929 21.5607 24.3694 19.9714 22.7757 19.9714C21.1585 19.9714 20.9107 21.3179 20.9107 22.7107V28H17.8036V17.3179H20.7868V18.775H20.8304C21.2455 17.9357 22.26 17.05 23.7734 17.05C26.9208 17.05 27.5 19.2607 27.5 22.1321V28H27.4967Z" fill="#05010D"/>
</svg>
