<svg width="40" height="40" viewBox="0 0 40 40" fill="none" xmlns="http://www.w3.org/2000/svg">
<rect width="40" height="40" rx="20" fill="#D0D0C8"/>
<path d="M20 13.4458C22.1205 13.4458 22.4096 13.4458 23.2771 13.4458C24.0482 13.4458 24.4337 13.6386 24.7229 13.7349C25.1084 13.9277 25.3976 14.0241 25.6867 14.3133C25.9759 14.6024 26.1687 14.8916 26.2651 15.2771C26.3614 15.5663 26.4578 15.9518 26.5542 16.7229C26.5542 17.5904 26.5542 17.7831 26.5542 20C26.5542 22.2169 26.5542 22.4096 26.5542 23.2771C26.5542 24.0482 26.3614 24.4337 26.2651 24.7229C26.0723 25.1084 25.9759 25.3976 25.6867 25.6867C25.3976 25.9759 25.1084 26.1687 24.7229 26.2651C24.4337 26.3614 24.0482 26.4578 23.2771 26.5542C22.4096 26.5542 22.2169 26.5542 20 26.5542C17.7831 26.5542 17.5904 26.5542 16.7229 26.5542C15.9518 26.5542 15.5663 26.3614 15.2771 26.2651C14.8916 26.0723 14.6024 25.9759 14.3133 25.6867C14.0241 25.3976 13.8313 25.1084 13.7349 24.7229C13.6386 24.4337 13.5422 24.0482 13.4458 23.2771C13.4458 22.4096 13.4458 22.2169 13.4458 20C13.4458 17.7831 13.4458 17.5904 13.4458 16.7229C13.4458 15.9518 13.6386 15.5663 13.7349 15.2771C13.9277 14.8916 14.0241 14.6024 14.3133 14.3133C14.6024 14.0241 14.8916 13.8313 15.2771 13.7349C15.5663 13.6386 15.9518 13.5422 16.7229 13.4458C17.5904 13.4458 17.8795 13.4458 20 13.4458ZM20 12C17.7831 12 17.5904 12 16.7229 12C15.8554 12 15.2771 12.1928 14.7952 12.3855C14.3133 12.5783 13.8313 12.8675 13.3494 13.3494C12.8675 13.8313 12.6747 14.2169 12.3855 14.7952C12.1928 15.2771 12.0964 15.8554 12 16.7229C12 17.5904 12 17.8795 12 20C12 22.2169 12 22.4096 12 23.2771C12 24.1446 12.1928 24.7229 12.3855 25.2048C12.5783 25.6867 12.8675 26.1687 13.3494 26.6506C13.8313 27.1325 14.2169 27.3253 14.7952 27.6145C15.2771 27.8072 15.8554 27.9036 16.7229 28C17.5904 28 17.8795 28 20 28C22.1205 28 22.4096 28 23.2771 28C24.1446 28 24.7229 27.8072 25.2048 27.6145C25.6867 27.4217 26.1687 27.1325 26.6506 26.6506C27.1325 26.1687 27.3253 25.7831 27.6145 25.2048C27.8072 24.7229 27.9036 24.1446 28 23.2771C28 22.4096 28 22.1205 28 20C28 17.8795 28 17.5904 28 16.7229C28 15.8554 27.8072 15.2771 27.6145 14.7952C27.4217 14.3133 27.1325 13.8313 26.6506 13.3494C26.1687 12.8675 25.7831 12.6747 25.2048 12.3855C24.7229 12.1928 24.1446 12.0964 23.2771 12C22.4096 12 22.2169 12 20 12Z" fill="#181A1B"/>
<path d="M20 15.8554C17.6867 15.8554 15.8554 17.6867 15.8554 20C15.8554 22.3133 17.6867 24.1446 20 24.1446C22.3133 24.1446 24.1446 22.3133 24.1446 20C24.1446 17.6867 22.3133 15.8554 20 15.8554ZM20 22.6988C18.5542 22.6988 17.3012 21.5422 17.3012 20C17.3012 18.5542 18.4578 17.3012 20 17.3012C21.4458 17.3012 22.6988 18.4578 22.6988 20C22.6988 21.4458 21.4458 22.6988 20 22.6988Z" fill="#181A1B"/>
<path d="M24.241 16.7229C24.7733 16.7229 25.2048 16.2914 25.2048 15.759C25.2048 15.2267 24.7733 14.7952 24.241 14.7952C23.7086 14.7952 23.2771 15.2267 23.2771 15.759C23.2771 16.2914 23.7086 16.7229 24.241 16.7229Z" fill="#181A1B"/>
</svg>
