<svg width="22" height="21" viewBox="0 0 22 21" fill="none" xmlns="http://www.w3.org/2000/svg">
<path d="M14.2749 7.42493C14.2749 7.42493 10.6974 11.2349 9.7749 14.1749L7.5249 11.9249M20.2749 10.7999C20.2749 13.2863 19.2872 15.6709 17.529 17.4291C15.7709 19.1872 13.3863 20.1749 10.8999 20.1749C8.4135 20.1749 6.02893 19.1872 4.27078 17.4291C2.51262 15.6709 1.5249 13.2863 1.5249 10.7999C1.5249 8.31352 2.51262 5.92895 4.27078 4.1708C6.02893 2.41265 8.4135 1.42493 10.8999 1.42493C13.3863 1.42493 15.7709 2.41265 17.529 4.1708C19.2872 5.92895 20.2749 8.31352 20.2749 10.7999Z" stroke="white" stroke-opacity="0.6" stroke-width="1.5" stroke-linecap="round" stroke-linejoin="round"/>
</svg>
