<svg width="18" height="18" viewBox="0 0 18 18" fill="none" xmlns="http://www.w3.org/2000/svg">
<path fill-rule="evenodd" clip-rule="evenodd" d="M1.125 0C0.826631 6.28765e-09 0.540483 0.118526 0.329505 0.329505C0.118526 0.540483 0 0.826631 0 1.125C0 1.42337 0.118526 1.70952 0.329505 1.9205C0.540483 2.13147 0.826631 2.25 1.125 2.25H9.375C9.67337 2.25 9.95952 2.13147 10.1705 1.9205C10.3815 1.70952 10.5 1.42337 10.5 1.125C10.5 0.826631 10.3815 0.540483 10.1705 0.329505C9.95952 0.118526 9.67337 6.28765e-09 9.375 0H1.125ZM14.625 0C14.3266 6.28765e-09 14.0405 0.118526 13.8295 0.329505C13.6185 0.540483 13.5 0.826631 13.5 1.125C13.5 1.42337 13.6185 1.70952 13.8295 1.9205C14.0405 2.13147 14.3266 2.25 14.625 2.25H16.875C17.1734 2.25 17.4595 2.13147 17.6705 1.9205C17.8815 1.70952 18 1.42337 18 1.125C18 0.826631 17.8815 0.540483 17.6705 0.329505C17.4595 0.118526 17.1734 6.28765e-09 16.875 0H14.625ZM9 16.875C9 16.5766 9.11853 16.2905 9.32951 16.0795C9.54048 15.8685 9.82663 15.75 10.125 15.75H16.875C17.1734 15.75 17.4595 15.8685 17.6705 16.0795C17.8815 16.2905 18 16.5766 18 16.875C18 17.1734 17.8815 17.4595 17.6705 17.6705C17.4595 17.8815 17.1734 18 16.875 18H10.125C9.82663 18 9.54048 17.8815 9.32951 17.6705C9.11853 17.4595 9 17.1734 9 16.875ZM1.125 15.75C0.826631 15.75 0.540483 15.8685 0.329505 16.0795C0.118526 16.2905 0 16.5766 0 16.875C0 17.1734 0.118526 17.4595 0.329505 17.6705C0.540483 17.8815 0.826631 18 1.125 18H4.875C5.17337 18 5.45952 17.8815 5.6705 17.6705C5.88147 17.4595 6 17.1734 6 16.875C6 16.5766 5.88147 16.2905 5.6705 16.0795C5.45952 15.8685 5.17337 15.75 4.875 15.75H1.125ZM0 11.625C0 11.3266 0.118526 11.0405 0.329505 10.8295C0.540483 10.6185 0.826631 10.5 1.125 10.5H7.875C8.17337 10.5 8.45952 10.6185 8.6705 10.8295C8.88147 11.0405 9 11.3266 9 11.625C9 11.9234 8.88147 12.2095 8.6705 12.4205C8.45952 12.6315 8.17337 12.75 7.875 12.75H1.125C0.826631 12.75 0.540483 12.6315 0.329505 12.4205C0.118526 12.2095 0 11.9234 0 11.625ZM13.125 10.5C12.8266 10.5 12.5405 10.6185 12.3295 10.8295C12.1185 11.0405 12 11.3266 12 11.625C12 11.9234 12.1185 12.2095 12.3295 12.4205C12.5405 12.6315 12.8266 12.75 13.125 12.75H16.875C17.1734 12.75 17.4595 12.6315 17.6705 12.4205C17.8815 12.2095 18 11.9234 18 11.625C18 11.3266 17.8815 11.0405 17.6705 10.8295C17.4595 10.6185 17.1734 10.5 16.875 10.5H13.125ZM0 6.375C0 6.07663 0.118526 5.79048 0.329505 5.5795C0.540483 5.36853 0.826631 5.25 1.125 5.25H3.375C3.67337 5.25 3.95952 5.36853 4.1705 5.5795C4.38147 5.79048 4.5 6.07663 4.5 6.375C4.5 6.67337 4.38147 6.95952 4.1705 7.1705C3.95952 7.38147 3.67337 7.5 3.375 7.5H1.125C0.826631 7.5 0.540483 7.38147 0.329505 7.1705C0.118526 6.95952 0 6.67337 0 6.375ZM8.625 5.25C8.32663 5.25 8.04048 5.36853 7.8295 5.5795C7.61853 5.79048 7.5 6.07663 7.5 6.375C7.5 6.67337 7.61853 6.95952 7.8295 7.1705C8.04048 7.38147 8.32663 7.5 8.625 7.5H16.875C17.1734 7.5 17.4595 7.38147 17.6705 7.1705C17.8815 6.95952 18 6.67337 18 6.375C18 6.07663 17.8815 5.79048 17.6705 5.5795C17.4595 5.36853 17.1734 5.25 16.875 5.25H8.625Z" fill="#56C2FF"/>
</svg>
